<?xml version="1.0" encoding="utf-8"?>
<svg xmlns="http://www.w3.org/2000/svg" class="icon icon-tabler icon-tabler-calendar-time" width="56" height="56" viewBox="0 0 24 24" stroke-width="2" stroke="currentColor" fill="none" stroke-linecap="round" stroke-linejoin="round">
  <path stroke="none" d="M0 0h24v24H0z"/>
  <g id="g137" transform="matrix(0.344676, 0, 0, 0.344676, -1.097733, -1.110916)">
    <path d="M 65.269 18.765 L 57.863 11.359 C 57.472 10.968 56.84 10.968 56.449 11.359 L 51.688 16.12 L 30.527 37.28 L 28.411 39.396 C 28.298000000000002 39.509 28.213 39.648 28.165 39.801 L 24.727 50.646 C 24.614 51.001 24.709 51.391 24.973 51.655 C 25.163 51.845 25.419 51.948 25.68 51.948 C 25.781 51.948 25.883 51.932 25.982 51.901 L 36.826 48.463 C 36.979 48.415 37.118 48.33 37.231 48.217 L 39.347 46.101 L 60.508 24.941 L 65.269 20.18 C 65.66 19.789 65.66 19.156 65.269 18.765 Z M 39.378 45.993 L 30.558 37.173 M 60.325 24.77 L 52.057 16.501" id="path133" style="stroke-width: 3.8587px;"/>
    <path d="M 39.438 15.934 L 15.95 15.95 C 13.194 15.95 10.438 18.706 10.438 21.463 L 10.438 59.498 C 10.438 62.255 13.194 65.011 15.95 65.011 L 54.813 65.011 C 57.569 65.011 60.325 62.255 60.325 59.498 L 60.438 36.934" id="path135" style="stroke-width: 3.8587px;"/>
  </g>
</svg>